<svg width="16" height="16" viewBox="0 0 16 16" fill="none" xmlns="http://www.w3.org/2000/svg">
<g id="info-shape" clip-path="url(#clip0_8196_16643)">
<path id="&#230;&#143;&#144;&#233;&#134;&#146;" fill-rule="evenodd" clip-rule="evenodd" d="M16 8C16 12.4183 12.4183 16 8 16C3.58172 16 0 12.4183 0 8C0 3.58172 3.58172 0 8 0C12.4183 0 16 3.58172 16 8ZM7 8C7 7.44772 7.44772 7 8 7C8.55229 7 9 7.44772 9 8V12C9 12.5523 8.55229 13 8 13C7.44772 13 7 12.5523 7 12V8ZM8 3C7.44772 3 7 3.44772 7 4C7 4.55228 7.44772 5 8 5C8.55229 5 9 4.55228 9 4C9 3.44772 8.55229 3 8 3Z" fill="#2453DE"/>
</g>
<defs>
<clipPath id="clip0_8196_16643">
<rect width="16" height="16" fill="white"/>
</clipPath>
</defs>
</svg>
