<?xml version="1.0" encoding="UTF-8"?>
<svg
  width="16px"
  height="16px"
  viewBox="0 0 16 16"
  version="1.1"
  xmlns="http://www.w3.org/2000/svg"
  xmlns:xlink="http://www.w3.org/1999/xlink"
>
  <title>切片</title>
  <defs>
    <polygon id="path-1" points="0 0 5 0 5 9 0 9"></polygon>
  </defs>
  <g id="页面-1" stroke="none" stroke-width="1" fill="none" fill-rule="evenodd">
    <g id="智能分析备份" transform="translate(-1333.000000, -458.000000)">
      <g id="编组备份" transform="translate(873.000000, 228.000000)">
        <g
          id="02数据录入/04下拉菜单/勾选备份"
          transform="translate(352.000000, 186.000000)"
        >
          <g id="编组-4备份-7" transform="translate(104.000000, 40.000000)">
            <g id="图标/字段备份-2" transform="translate(4.000000, 4.000000)">
              <g id="编组" transform="translate(0.000000, 1.000000)">
                <path
                  d="M9.38114642,7.89813138 L6.51882365,7.89813138 C6.25088704,7.89813138 6.24188917,7.85908504 6.23089177,7.80289641 C6.23089177,7.79908701 6.22689272,7.70099499 6.34486481,7.29815106 C6.46083737,6.95149576 6.54881655,6.71626538 6.61879999,6.56198472 C6.71477729,6.36675303 6.86074275,6.16104549 7.0646945,5.94676681 C7.47459751,5.473449 7.91949225,5.17060179 8.53434677,4.75156791 L8.63532288,4.68299873 C9.21118663,4.20301447 9.53011118,3.86969207 9.79904755,3.26495 C10.1569629,2.28783919 9.87003075,1.51167417 9.57110148,1.04502281 C9.20218876,0.353616917 8.19242767,-0.0930351005 7.21365925,0.0164851169 C6.63479621,0.0726737503 6.17890407,0.27457189 5.73600886,0.667892324 C5.32410632,1.02216642 5.06016877,1.68881122 5.01118036,2.48307088 C4.94219668,3.00781558 5.20513447,3.26018825 5.45107628,3.31637689 C5.72801076,3.37732727 6.0139431,3.21447547 6.12691638,2.91924706 L6.17890407,2.20403242 C6.16890644,1.98118258 6.31387214,1.70119177 6.55681466,1.47262783 C6.83674843,1.20977931 7.19666327,1.05454631 7.49159349,1.07645035 C8.30140189,1.12502019 8.76029332,1.5754816 8.81727983,2.36593187 C8.81727983,2.67544553 8.73929828,2.90115241 8.52334938,3.23066541 C8.42037374,3.38780312 8.28440591,3.53636967 8.13344163,3.65827044 L7.17766777,4.40300791 C6.7007806,4.76204376 6.37485771,5.04965337 6.17590478,5.27916965 C5.97895138,5.50773359 5.79299538,5.77820091 5.62403536,6.08580987 C5.31510845,6.66579084 5.16214464,7.18005969 5.11715529,7.82099105 C5.13215174,8.81048241 5.27411815,8.93143082 6.50682649,9 L9.38114642,8.9866671 C9.70606954,8.9866671 9.9780052,8.75048437 10,8.43620897 C10,8.17716984 9.76305606,7.89813138 9.38114642,7.89813138"
                  id="Fill-3"
                  fill="rgba(59, 100, 252, 1)"
                ></path>
                <g transform="translate(11.000000, 0.000000)">
                  <mask id="mask-2" fill="white">
                    <use xlink:href="#path-1"></use>
                  </mask>
                  <g id="Clip-6"></g>
                  <path
                    d="M4.63304897,4.92381353 C4.47221005,4.67378723 4.26371515,4.47111438 4.02543526,4.3347364 L3.80999053,4.21824687 C4.0145141,4.11312217 4.1594677,4.01178575 4.25378682,3.90666105 C4.33321345,3.81858361 4.41363291,3.6983058 4.51887319,3.51552141 C4.71644693,3.16699989 4.82268005,2.77680732 4.83757254,2.35536146 C4.85047937,1.70188362 4.62510631,1.12890666 4.18528135,0.69609597 C3.74347073,0.26139114 3.11401469,0.00852362412 2.45378083,0 C1.87694494,0 1.31897287,0.200778701 0.918861223,0.554982637 C0.553498728,0.903504157 0.434358784,1.13458908 0.27351986,1.48121646 C0.0680034569,1.91970957 0.0233259779,2.22561296 0.134523259,2.44438598 C0.244727707,2.66505314 0.479036263,2.72377144 0.593212043,2.75218352 L0.623989862,2.75976008 L0.65476768,2.75786594 C0.934746549,2.74081869 1.05686499,2.66789435 1.17104077,2.42355046 L1.31798003,1.87614438 C1.4530053,1.39313901 1.91467259,1.05692939 2.43988117,1.05692939 C3.05146622,1.05692939 3.70276458,1.5200463 3.70276458,2.38187941 C3.71368574,2.78533095 3.64120894,3.07229296 3.49526251,3.21340629 C2.9511901,3.72008839 2.73872387,3.75134168 2.32371973,3.77312428 L1.67539987,3.75986531 C1.1055138,3.75986531 0.932760883,3.86404293 0.834470429,4.29306535 C0.823549268,4.42186678 0.873190911,4.55256235 0.971481365,4.6529517 C1.07970015,4.76565295 1.23855341,4.83005367 1.41527766,4.83005367 L1.41627049,4.83005367 L2.38527537,4.78838262 C2.63944058,4.80637693 3.63227344,4.93801957 3.83381852,5.82921183 C4.02940659,6.35009997 3.80502636,7.24223929 3.38505806,7.57655477 C3.13188568,7.81805746 2.75758769,7.96958855 2.44087401,7.92981164 C1.94942174,7.89571714 1.45201247,7.52825424 1.33187969,7.11343786 L1.11941346,6.32831737 C1.02410151,6.12375039 0.712351987,6.03756708 0.549527397,6.03756708 L0.547541731,6.03756708 C0.290398019,6.05650847 0.0213403122,6.24592234 0.00346932061,6.61906766 C-0.0243299996,6.92591813 0.10374544,7.68167947 0.797735613,8.34273387 C1.24848173,8.77270336 1.83028179,9 2.48058732,9 C3.10011503,9 3.85466801,8.68936125 4.27761481,8.2584447 C4.76906708,7.73092708 5.02521795,7.03009576 4.99841147,6.2904346 C4.99841147,5.85857098 4.97061215,5.42860149 4.63304897,4.92381353"
                    id="Fill-5"
                    fill="rgba(59, 100, 252, 1)"
                    mask="url(#mask-2)"
                  ></path>
                </g>
                <path
                  d="M2.57359011,0.0219569605 L2.56468803,0.0200971898 C2.17210606,-0.0831200839 1.90237287,0.233040935 1.73501367,0.472021469 L0.123736218,2.54380603 C0.02492307,2.67027043 -0.0169167313,2.82742106 0.00622869069,2.98457168 C0.0293741126,3.14079242 0.113943924,3.28399476 0.235902493,3.36861433 C0.439760248,3.51181667 0.68812843,3.43835573 0.856377843,3.19193611 L2.01899019,1.68645173 L2.0198804,8.48856306 C2.01097832,8.64292403 2.04747687,8.76659878 2.13026626,8.85772754 C2.21572628,8.95257585 2.33768485,9 2.49792239,9 C2.81305621,9 3,8.81309304 3,8.49972168 L3,0.752846844 C3,0.419018004 2.81305621,0.0991374444 2.57359011,0.0219569605"
                  id="Fill-1"
                  fill="rgba(59, 100, 252, 1)"
                ></path>
              </g>
              <path
                d="M3,11 C3.55228475,11 4,11.4477153 4,12 L4,14 C4,14.5522847 3.55228475,15 3,15 L1,15 C0.44771525,15 0,14.5522847 0,14 L0,12 C0,11.4477153 0.44771525,11 1,11 L3,11 Z M3,12 L1,12 L1,14 L3,14 L3,12 Z"
                id="矩形"
                fill="rgba(13, 13, 13, 0.9)"
              ></path>
              <path
                d="M15,11 C15.5522847,11 16,11.4477153 16,12 L16,14 C16,14.5522847 15.5522847,15 15,15 L6,15 C5.44771525,15 5,14.5522847 5,14 L5,12 C5,11.4477153 5.44771525,11 6,11 L15,11 Z M15,12 L6,12 L6,14 L15,14 L15,12 Z"
                id="矩形备份-2"
                fill="rgba(13, 13, 13, 0.9)"
              ></path>
            </g>
          </g>
        </g>
      </g>
    </g>
  </g>
</svg>
