<svg width="16" height="16" viewBox="0 0 16 16" fill="none" xmlns="http://www.w3.org/2000/svg">
<path d="M4.24468 10.6747L1.38471 11.9747C1.15638 12.0785 0.921481 11.8436 1.02527 11.6153L2.32525 8.75532L9.68305 1.39753C10.2131 0.867491 11.0724 0.867491 11.6025 1.39753C12.1325 1.92756 12.1325 2.78692 11.6025 3.31695L4.24468 10.6747Z" stroke="#7F45F6"/>
<path d="M12.5 7L13.5889 9.41106L16 10.5L13.5889 11.5889L12.5 14L11.4111 11.5889L9 10.5L11.4111 9.41106L12.5 7Z" fill="#7F45F6"/>
<path d="M7 12L7.67882 13.3212L9 14L7.67882 14.6788L7 16L6.32118 14.6788L5 14L6.32118 13.3212L7 12Z" fill="#7F45F6"/>
</svg>
