<svg viewBox="0 0 16 16" fill="none" xmlns="http://www.w3.org/2000/svg">
<g clip-path="url(#clip0_2214_441126)">
<path fill-rule="evenodd" clip-rule="evenodd" d="M0 1.99902C0 1.44674 0.447716 0.999023 1 0.999023H15C15.5523 0.999023 16 1.44674 16 1.99902V10.7919L16.3536 11.1455L16 11.4991V13.999C16 14.5513 15.5523 14.999 15 14.999H1C0.447715 14.999 0 14.5513 0 13.999V1.99902ZM15 9.79187V1.99902H1V13.999H3.79292L11.0758 6.71617C11.3101 6.48186 11.69 6.48185 11.9243 6.71617L15 9.79187ZM5.20714 13.999L11.5 7.70612L15 11.2061V13.999H5.20714ZM4.5 5.99902C4.77614 5.99902 5 5.77517 5 5.49902C5 5.22288 4.77614 4.99902 4.5 4.99902C4.22386 4.99902 4 5.22288 4 5.49902C4 5.77517 4.22386 5.99902 4.5 5.99902ZM4.5 6.99902C5.32843 6.99902 6 6.32745 6 5.49902C6 4.6706 5.32843 3.99902 4.5 3.99902C3.67157 3.99902 3 4.6706 3 5.49902C3 6.32745 3.67157 6.99902 4.5 6.99902Z" fill="#7F45F6"/>
</g>
<defs>
<clipPath id="clip0_2214_441126">
<rect width="16" height="16" fill="white" transform="translate(0 -0.000976562)"/>
</clipPath>
</defs>
</svg>
