<svg width="12" height="12" viewBox="0 0 12 12" fill="none" xmlns="http://www.w3.org/2000/svg">
<path fill-rule="evenodd" clip-rule="evenodd" d="M11.25 0.75C11.6642 0.75 12 1.08579 12 1.5V10.5C12 10.9142 11.6642 11.25 11.25 11.25H0.75C0.335786 11.25 0 10.9142 0 10.5V1.5C0 1.08579 0.335786 0.75 0.75 0.75H11.25ZM11.25 1.5H0.75V10.5H11.25V1.5ZM9.75 8.25V9H5.25V8.25H9.75ZM9.75 6.75V7.5H5.25V6.75H9.75ZM9.75 3V5.25H2.25V3H9.75ZM9 3.75H3V4.5H9V3.75Z" fill="#333333"/>
<path fill-rule="evenodd" clip-rule="evenodd" d="M4.5 6.75V9H2.25V6.75H4.5ZM3.75 7.5H3V8.25H3.75V7.5Z" fill="#2453DE"/>
</svg>
