<svg viewBox="0 0 16 16" fill="none" xmlns="http://www.w3.org/2000/svg">
<path fill-rule="evenodd" clip-rule="evenodd" d="M12.3536 0.646445C11.606 -0.101101 10.394 -0.101102 9.64646 0.646445L1.85073 8.44218C1.67081 8.6221 1.52688 8.83469 1.42665 9.06856L0.0404421 12.303C-0.0400956 12.491 0.00189163 12.709 0.146461 12.8536C0.291031 12.9981 0.509053 13.0401 0.696974 12.9596L3.93146 11.5734C4.16532 11.4731 4.37792 11.3292 4.55783 11.1493L12.3536 3.35355C13.1011 2.60601 13.1011 1.39399 12.3536 0.646445ZM10.3536 1.35355C10.7106 0.996529 11.2894 0.996529 11.6465 1.35355C12.0035 1.71057 12.0035 2.28942 11.6465 2.64645L3.85073 10.4422C3.76077 10.5321 3.65447 10.6041 3.53754 10.6542L1.45199 11.548L2.34579 9.46248C2.39591 9.34554 2.46787 9.23925 2.55783 9.14929L10.3536 1.35355Z" fill="#7F45F6"/>
<path d="M14 9.5C14 9.22386 13.7761 9 13.5 9C13.2239 9 13 9.22386 13 9.5V11H11.5C11.2239 11 11 11.2239 11 11.5C11 11.7761 11.2239 12 11.5 12H13V13.5C13 13.7761 13.2239 14 13.5 14C13.7761 14 14 13.7761 14 13.5V12H15.5C15.7761 12 16 11.7761 16 11.5C16 11.2239 15.7761 11 15.5 11H14V9.5Z" fill="#7F45F6"/>
<path d="M9 12.5C9 12.2239 8.77614 12 8.5 12C8.22386 12 8 12.2239 8 12.5V13H7.5C7.22386 13 7 13.2239 7 13.5C7 13.7761 7.22386 14 7.5 14H8V14.5C8 14.7761 8.22386 15 8.5 15C8.77614 15 9 14.7761 9 14.5V14H9.5C9.77614 14 10 13.7761 10 13.5C10 13.2239 9.77614 13 9.5 13H9V12.5Z" fill="#7F45F6"/>
</svg>
