<!-- 1.0icon -->
<!-- <svg width="16" height="16" viewBox="0 0 16 16" fill="none" xmlns="http://www.w3.org/2000/svg">
<path fill-rule="evenodd" clip-rule="evenodd" d="M1.00024 3.99998C1.00025 2.89542 1.89568 2 3.00024 2H13C14.1046 2 15 2.89543 15 4L14.9998 11C14.9998 12.1046 14.1043 13 12.9998 13H9.24094L6.86629 15.4052C6.36382 15.9141 5.49701 15.5583 5.49701 14.8431V13H3C1.89543 13 1 12.1046 1 11L1.00024 3.99998ZM3.00024 3C2.44796 3 2.00024 3.44772 2.00024 4L2 11C2.00001 11.5523 2.44772 12 3 12H6.49701V14.3559L8.82298 12H12.9998C13.552 12 13.9998 11.5523 13.9998 11L14 4C14 3.44772 13.5523 3 13 3H3.00024ZM5 6.5C5 6.22386 5.22386 6 5.5 6H10.5C10.7761 6 11 6.22386 11 6.5C11 6.77614 10.7761 7 10.5 7H5.5C5.22386 7 5 6.77614 5 6.5ZM5 8.5C5 8.22386 5.22386 8 5.5 8H8.5C8.77614 8 9 8.22386 9 8.5C9 8.77614 8.77614 9 8.5 9H5.5C5.22386 9 5 8.77614 5 8.5Z" fill="#333333"/>
</svg> -->

<!-- 2.0 -->
<svg width="20" height="20" viewBox="0 0 20 20" fill="none" xmlns="http://www.w3.org/2000/svg">
<path d="M7.1878 6.5625H12.8128M7.1875 10.3125H10.3125M4.0625 15.329C3.02697 15.329 2.1875 14.4895 2.1875 13.454L2.1878 4.0625C2.1878 3.02697 3.02727 2.1875 4.0628 2.1875H15.9378C16.9733 2.1875 17.8128 3.02697 17.8128 4.0625L17.8125 13.454C17.8125 14.4895 16.973 15.329 15.9375 15.329H10.9777L7.82591 18.5213C7.59038 18.7599 7.18406 18.5931 7.18406 18.2579V15.329H4.0625Z" stroke="#682AEF" stroke-width="2" stroke-linecap="round"/>
</svg>

