<svg width="12" height="16" viewBox="0 0 12 16" fill="none" xmlns="http://www.w3.org/2000/svg">
<path d="M4.22821 15H7.77175M6.3762 4.16503L5.60805 5.31726C5.49419 5.48805 5.58163 5.72019 5.77988 5.77341L6.22009 5.8916C6.41833 5.94482 6.50577 6.17695 6.39191 6.34775L5.62376 7.49997M4.22821 12.2499H7.77175C7.90661 12.2499 8.0249 12.1599 8.06088 12.03L8.43991 10.6608C8.71806 9.656 9.37755 8.80617 9.91431 7.9124C10.326 7.22691 10.5627 6.42439 10.5627 5.56658C10.5627 3.04655 8.5198 1.00366 5.99977 1.00366C3.47975 1.00366 1.43686 3.04655 1.43686 5.56658C1.43686 6.4245 1.67363 7.22712 2.08539 7.91266C2.62225 8.80647 3.28186 9.65631 3.56008 10.6612L3.93909 12.03C3.97507 12.1599 4.09335 12.2499 4.22821 12.2499Z" stroke="#2453DE" stroke-linecap="round" stroke-linejoin="round"/>
</svg>
