<svg width="16" height="16" viewBox="0 0 16 16" fill="none" xmlns="http://www.w3.org/2000/svg">
  <path d="M0.5 2C0.5 1.17157 1.17157 0.5 2 0.5H14C14.8284 0.5 15.5 1.17157 15.5 2V14C15.5 14.8284 14.8284 15.5 14 15.5H2C1.17157 15.5 0.5 14.8284 0.5 14V2Z" fill="white" stroke="#3B64FC"/>
  <path opacity="0.2" d="M0 14H16C16 15.1046 15.1046 16 14 16H2C0.895431 16 0 15.1046 0 14Z" fill="#3B64FC"/>
  <path opacity="0.2" d="M8 14H16C16 15.1046 15.1046 16 14 16H8V14Z" fill="#3B64FC"/>
  <path d="M3.3418 4H4.87727L5.88797 8.62035L7.21237 4.5H8.78795L10.1123 8.62035L11.123 4H12.6585L10.9085 12H9.62308L8.00016 6.95091L6.37723 12H5.0918L3.3418 4Z" fill="#3B64FC"/>
  </svg>
  