<svg width="16" height="16" viewBox="0 0 16 16" fill="none" xmlns="http://www.w3.org/2000/svg">
<rect width="16" height="16" fill="none"/>
<path fill-rule="evenodd" clip-rule="evenodd" d="M6 4.5C6 4.22386 6.22386 4 6.5 4H13.3846C13.6608 4 13.8846 4.22386 13.8846 4.5C13.8846 4.77614 13.6608 5 13.3846 5H6.5C6.22386 5 6 4.77614 6 4.5ZM8 7.5C8 7.22386 8.22386 7 8.5 7H15.3846C15.6608 7 15.8846 7.22386 15.8846 7.5C15.8846 7.77614 15.6608 8 15.3846 8H8.5C8.22386 8 8 7.77614 8 7.5Z" fill="#7F45F6"/>
<path d="M12.5 10.4989C11.3487 12.3222 9.31577 13.5332 7 13.5332C3.41015 13.5332 0.5 10.6231 0.5 7.0332C0.5 3.44335 3.41015 0.533203 7 0.533203C8.56066 0.533203 9.99286 1.08323 11.1133 2M11.6128 11.6128L14.5 14.5" stroke="#7F45F6" stroke-linecap="round"/>
</svg>
